<svg role="img" viewBox="0 0 24 24" xmlns="http://www.w3.org/2000/svg"><title>Qiita icon</title><path d="m 0.05997135,21.306874 v -2.768485 l 1.62093595,1.210498 c 0.8915147,0.665797 2.4950449,1.49088 3.5634005,1.833505 2.4799612,0.795374 7.4451292,0.402532 9.9089222,-0.783951 l 1.876397,-0.903614 1.99505,1.948115 1.99505,1.948116 1.365423,-1.39052 1.365423,-1.39052 -2.114348,-1.842892 -2.114348,-1.842855 1.092,-2.207157 c 2.098089,-4.24059 1.705535,-9.8177493 -0.94041,-13.3607604 L 18.462939,0 H 21.231444 24 V 11.970014 23.940029 H 12.030012 0.06002376 Z M 4.7980917,17.021926 C -0.54863975,13.701199 -1.6220118,7.1729981 2.4607612,2.8063369 6.1626375,-1.1529292 13.433259,-0.84189729 16.457375,3.4050638 19.668965,7.9153275 18.093313,14.887833 13.354298,17.13665 10.995177,18.2561 6.6923787,18.198418 4.7980917,17.022039 Z" fill="#55C500"/></svg>
