<svg xmlns="http://www.w3.org/2000/svg" width="143pt" height="143pt" viewBox="0 0 190.667 190.667"><path d="M17.116 179.385h34.98c1.852 0 3.497-1.028 4.527-2.469l96.296-158.23c1.234-2.058-.206-4.527-2.675-4.527h-33.128c-1.645 0-3.085.822-3.91 2.262L15.472 176.505c-.62 1.235.205 2.88 1.645 2.88M137.693 176.917l45.473-73.046c1.44-2.264-.205-5.145-2.881-5.145h-32.922c-1.234 0-2.469.619-3.086 1.647l-46.708 74.692c-1.235 1.852.206 4.321 2.469 4.321h33.54c1.645 0 3.292-.824 4.115-2.47" fill="#3ea8ff"/></svg>